<?xml version="1.0" encoding="UTF-8" standalone="no"?>
<!-- Created with Inkscape (http://www.inkscape.org/) -->

<svg
   width="256"
   height="256"
   viewBox="0 0 64 64"
   version="1.1"
   id="svg1"
   xml:space="preserve"
   xmlns="http://www.w3.org/2000/svg"
   xmlns:svg="http://www.w3.org/2000/svg"><defs
     id="defs1" /><g
     id="layer11"
     style="display:inline"><g
       id="g31"
       style="display:none"><path
         style="display:inline;fill:#f9f9f9;fill-opacity:1;fill-rule:evenodd;stroke-width:0.24167;paint-order:stroke markers fill"
         id="path31"
         width="64"
         height="64"
         x="0"
         y="0"
         d="m 8,0 h 48 c 4.432,0 8,3.568 8,8 v 48 c 0,4.432 -3.568,8 -8,8 H 8 C 3.568,64 0,60.432 0,56 V 8 C 0,3.568 3.568,0 8,0 Z"
         ry="8" /></g><g
       id="layer5"
       style="display:none"><path
         style="display:inline;fill:#f9f9f9;fill-opacity:1;fill-rule:evenodd;stroke-width:0.24167;paint-order:stroke markers fill"
         id="rect1-0"
         width="64"
         height="64"
         x="0"
         y="0"
         d="m 0.0335,0 h 63.933 C 63.985059,0 64,0.014941 64,0.0335 v 63.933 C 64,63.985059 63.985059,64 63.9665,64 H 0.0335 C 0.014941,64 0,63.985059 0,63.9665 V 0.0335 C 0,0.014941 0.014941,0 0.0335,0 Z"
         ry="0.033500001" /></g><g
       id="g29"
       transform="matrix(1.0012714,0,0,1.0012714,-0.05950737,-0.02900121)"
       style="display:inline"><g
         id="g28"
         transform="translate(0.00378645,-1.5590526)"
         style="display:inline"><path
           d="m 29.290334,22.811034 c -0.501237,0 -0.900574,0.140857 -1.198184,0.422803 -0.281946,0.281946 -0.422802,0.650306 -0.422802,1.104552 0,0.485574 0.140856,0.861679 0.422802,1.127961 0.281946,0.266282 0.681283,0.399394 1.198184,0.399394 0.501237,0 0.89283,-0.141344 1.174776,-0.42329 0.29761,-0.281946 0.446698,-0.649818 0.446698,-1.104065 0,-0.485573 -0.141344,-0.861678 -0.42329,-1.12796 -0.281946,-0.266282 -0.681283,-0.399395 -1.198184,-0.399395 z"
           style="font-size:23.4955px;line-height:0px;font-family:Lexend;-inkscape-font-specification:'Lexend, Normal';fill:#13e100;fill-opacity:1;fill-rule:evenodd;stroke:#13e100;stroke-width:0;stroke-opacity:1;paint-order:stroke markers fill"
           id="path11" /><path
           d="m 28.115558,28.590795 v 12.335391 h 2.420263 V 28.590795 Z"
           style="font-size:23.4955px;line-height:0px;font-family:Lexend;-inkscape-font-specification:'Lexend, Normal';fill:#161825;fill-opacity:1;fill-rule:evenodd;stroke:#ffffff;stroke-width:0;stroke-opacity:1;paint-order:stroke markers fill"
           id="path20" /><g
           id="g23"
           style="fill:#161825;fill-opacity:1;stroke:#ffffff;stroke-opacity:1"><path
             id="path21"
             style="font-size:23.4955px;line-height:0px;font-family:Lexend;-inkscape-font-specification:'Lexend, Normal';fill:#161825;fill-opacity:1;fill-rule:evenodd;stroke:#ffffff;stroke-width:0;stroke-opacity:1;paint-order:stroke markers fill"
             d="m 46.371759,28.308927 c -0.908492,0 -1.754118,0.164576 -2.537301,0.493513 -0.76752,0.313274 -1.433569,0.767793 -1.997461,1.363013 -0.548228,0.579555 -0.979029,1.268349 -1.292302,2.067196 -0.313273,0.798847 -0.469618,1.684169 -0.469618,2.655316 0,1.221766 0.273969,2.302639 0.822197,3.242459 0.563892,0.93982 1.331588,1.683798 2.302736,2.232026 0.986811,0.532565 2.114637,0.798789 3.383394,0.798789 0.579556,0 1.166701,-0.07842 1.76192,-0.235053 0.610883,-0.1723 1.18254,-0.399317 1.715105,-0.681263 0.548228,-0.281946 1.010493,-0.611098 1.386421,-0.987026 l -1.221592,-1.715105 c -0.610883,0.532564 -1.183027,0.900926 -1.715592,1.104553 -0.516901,0.203628 -1.080326,0.305276 -1.691209,0.305276 -0.861502,0 -1.621455,-0.17232 -2.279329,-0.516921 -0.657874,-0.3446 -1.16709,-0.830097 -1.527355,-1.456644 -0.272382,-0.485551 -0.441699,-1.033976 -0.508143,-1.644881 h 9.436733 l 0.02341,-1.033842 c 0.01566,-0.861502 -0.117448,-1.652432 -0.399394,-2.37296 -0.266282,-0.736193 -0.657875,-1.370778 -1.174776,-1.903342 -0.501237,-0.532565 -1.096614,-0.94739 -1.785815,-1.244999 -0.689202,-0.313274 -1.433179,-0.470105 -2.232026,-0.470105 z m 0,2.232025 c 0.532565,0 1.025806,0.117624 1.480052,0.352579 0.454246,0.234955 0.83035,0.556364 1.12796,0.963619 0.297609,0.407256 0.46993,0.869032 0.516921,1.385933 v 0.164342 h -6.900406 c 0.07416,-0.354185 0.181536,-0.675106 0.321856,-0.963131 0.29761,-0.626547 0.736155,-1.096556 1.31571,-1.409829 0.579556,-0.328937 1.292069,-0.493513 2.137907,-0.493513 z" /></g><g
           id="g26"
           style="fill:#161825;fill-opacity:1;stroke:#ffffff;stroke-opacity:1"><path
             id="path24"
             style="font-size:23.4955px;line-height:0px;font-family:Lexend;-inkscape-font-specification:'Lexend, Normal';fill:#161825;fill-opacity:1;fill-rule:evenodd;stroke:#ffffff;stroke-width:0;stroke-opacity:1;paint-order:stroke markers fill"
             d="m 17.80115,28.332822 c -1.080793,0 -2.05953,0.273969 -2.936696,0.822197 -0.861501,0.548229 -1.550782,1.307694 -2.067683,2.278841 -0.501238,0.955484 -0.751974,2.051846 -0.751974,3.289275 0,1.221766 0.250736,2.318616 0.751974,3.289763 0.501237,0.971148 1.166798,1.738356 1.996972,2.302248 0.845838,0.563892 1.778112,0.846093 2.79625,0.846093 0.595219,0 1.159132,-0.0939 1.691697,-0.281868 0.548228,-0.187964 1.041469,-0.4387 1.480052,-0.751974 0.454246,-0.313273 0.822119,-0.665659 1.104065,-1.05725 0.0079,-0.01082 0.01614,-0.02185 0.02389,-0.03267 v 1.888712 H 24.33288 V 28.590795 h -2.443183 v 1.893589 C 21.645437,30.079011 21.33177,29.722243 20.949491,29.41348 20.5579,29.068879 20.096123,28.802654 19.563558,28.61469 19.030993,28.426726 18.443361,28.332822 17.80115,28.332822 Z m 0.422802,2.232026 c 0.736192,0 1.386266,0.180063 1.950158,0.540328 0.563892,0.360264 1.002923,0.853505 1.316197,1.480052 0.328937,0.626546 0.493026,1.33906 0.493026,2.137907 0,0.814511 -0.164089,1.543 -0.493026,2.18521 -0.313274,0.626547 -0.752305,1.120276 -1.316197,1.48054 -0.563892,0.360264 -1.213966,0.540328 -1.950158,0.540328 -0.720529,0 -1.362369,-0.180064 -1.926261,-0.540328 -0.548229,-0.360264 -0.986773,-0.853993 -1.31571,-1.48054 -0.313274,-0.64221 -0.470106,-1.370699 -0.470106,-2.18521 0,-0.798847 0.156832,-1.511361 0.470106,-2.137907 0.328937,-0.626547 0.767481,-1.119788 1.31571,-1.480052 0.563892,-0.360265 1.205732,-0.540328 1.926261,-0.540328 z" /></g><g
           style="fill:none;stroke:#fc9aff;stroke-opacity:1"
           id="g27"
           transform="matrix(7.9214764,0,0,7.9214764,-90.959427,-45.832498)"><path
             d="m 16.161111,9.4828653 -0.553366,0.6917057 0.553366,0.691707"
             stroke="#33363f"
             stroke-width="0.276683"
             id="path27"
             style="stroke:#13e100;stroke-opacity:1" /></g></g></g></g><g
     id="layer12"
     style="display:none"><g
       id="g30"
       style="display:none"><path
         style="display:inline;fill:#161825;fill-opacity:1;fill-rule:evenodd;stroke-width:0.24175;stroke-dasharray:none;paint-order:stroke markers fill"
         id="path29"
         width="64"
         height="64"
         x="0"
         y="0"
         d="m 8,0 h 48 c 4.432,0 8,3.568 8,8 v 48 c 0,4.432 -3.568,8 -8,8 H 8 C 3.568,64 0,60.432 0,56 V 8 C 0,3.568 3.568,0 8,0 Z"
         ry="8" /></g><g
       id="layer1"
       style="display:none"><path
         style="display:inline;fill:#161825;fill-opacity:1;fill-rule:evenodd;stroke-width:0.24175;stroke-dasharray:none;paint-order:stroke markers fill"
         id="rect1"
         width="64"
         height="64"
         x="0"
         y="0"
         d="M 0,0 H 64 V 64 H 0 Z" /></g><g
       id="layer4"
       transform="matrix(1.0012714,0,0,1.0012714,-0.05950737,-0.02900121)"
       style="display:inline"><g
         id="g3"
         transform="translate(0.00378645,-1.5590526)"
         style="display:inline"><path
           d="m 29.290334,22.811034 c -0.501237,0 -0.900574,0.140857 -1.198184,0.422803 -0.281946,0.281946 -0.422802,0.650306 -0.422802,1.104552 0,0.485574 0.140856,0.861679 0.422802,1.127961 0.281946,0.266282 0.681283,0.399394 1.198184,0.399394 0.501237,0 0.89283,-0.141344 1.174776,-0.42329 0.29761,-0.281946 0.446698,-0.649818 0.446698,-1.104065 0,-0.485573 -0.141344,-0.861678 -0.42329,-1.12796 -0.281946,-0.266282 -0.681283,-0.399395 -1.198184,-0.399395 z"
           style="font-size:23.4955px;line-height:0px;font-family:Lexend;-inkscape-font-specification:'Lexend, Normal';fill:#13e100;fill-opacity:1;fill-rule:evenodd;stroke:#13e100;stroke-width:0;stroke-opacity:1;paint-order:stroke markers fill"
           id="path17" /><path
           d="m 28.115558,28.590795 v 12.335391 h 2.420263 V 28.590795 Z"
           style="font-size:23.4955px;line-height:0px;font-family:Lexend;-inkscape-font-specification:'Lexend, Normal';fill:#f9f9f9;fill-opacity:1;fill-rule:evenodd;stroke:#ffffff;stroke-width:0;stroke-opacity:1;paint-order:stroke markers fill"
           id="path16" /><g
           id="g19"
           style="fill:#f9f9f9;fill-opacity:1;stroke:#ffffff;stroke-opacity:1"><path
             id="path15"
             style="font-size:23.4955px;line-height:0px;font-family:Lexend;-inkscape-font-specification:'Lexend, Normal';fill:#f9f9f9;fill-opacity:1;fill-rule:evenodd;stroke:#ffffff;stroke-width:0;stroke-opacity:1;paint-order:stroke markers fill"
             d="m 46.371759,28.308927 c -0.908492,0 -1.754118,0.164576 -2.537301,0.493513 -0.76752,0.313274 -1.433569,0.767793 -1.997461,1.363013 -0.548228,0.579555 -0.979029,1.268349 -1.292302,2.067196 -0.313273,0.798847 -0.469618,1.684169 -0.469618,2.655316 0,1.221766 0.273969,2.302639 0.822197,3.242459 0.563892,0.93982 1.331588,1.683798 2.302736,2.232026 0.986811,0.532565 2.114637,0.798789 3.383394,0.798789 0.579556,0 1.166701,-0.07842 1.76192,-0.235053 0.610883,-0.1723 1.18254,-0.399317 1.715105,-0.681263 0.548228,-0.281946 1.010493,-0.611098 1.386421,-0.987026 l -1.221592,-1.715105 c -0.610883,0.532564 -1.183027,0.900926 -1.715592,1.104553 -0.516901,0.203628 -1.080326,0.305276 -1.691209,0.305276 -0.861502,0 -1.621455,-0.17232 -2.279329,-0.516921 -0.657874,-0.3446 -1.16709,-0.830097 -1.527355,-1.456644 -0.272382,-0.485551 -0.441699,-1.033976 -0.508143,-1.644881 h 9.436733 l 0.02341,-1.033842 c 0.01566,-0.861502 -0.117448,-1.652432 -0.399394,-2.37296 -0.266282,-0.736193 -0.657875,-1.370778 -1.174776,-1.903342 -0.501237,-0.532565 -1.096614,-0.94739 -1.785815,-1.244999 -0.689202,-0.313274 -1.433179,-0.470105 -2.232026,-0.470105 z m 0,2.232025 c 0.532565,0 1.025806,0.117624 1.480052,0.352579 0.454246,0.234955 0.83035,0.556364 1.12796,0.963619 0.297609,0.407256 0.46993,0.869032 0.516921,1.385933 v 0.164342 h -6.900406 c 0.07416,-0.354185 0.181536,-0.675106 0.321856,-0.963131 0.29761,-0.626547 0.736155,-1.096556 1.31571,-1.409829 0.579556,-0.328937 1.292069,-0.493513 2.137907,-0.493513 z" /></g><g
           id="g20"
           style="fill:#f9f9f9;fill-opacity:1;stroke:#ffffff;stroke-opacity:1"><path
             id="path19"
             style="font-size:23.4955px;line-height:0px;font-family:Lexend;-inkscape-font-specification:'Lexend, Normal';fill:#f9f9f9;fill-opacity:1;fill-rule:evenodd;stroke:#ffffff;stroke-width:0;stroke-opacity:1;paint-order:stroke markers fill"
             d="m 17.80115,28.332822 c -1.080793,0 -2.05953,0.273969 -2.936696,0.822197 -0.861501,0.548229 -1.550782,1.307694 -2.067683,2.278841 -0.501238,0.955484 -0.751974,2.051846 -0.751974,3.289275 0,1.221766 0.250736,2.318616 0.751974,3.289763 0.501237,0.971148 1.166798,1.738356 1.996972,2.302248 0.845838,0.563892 1.778112,0.846093 2.79625,0.846093 0.595219,0 1.159132,-0.0939 1.691697,-0.281868 0.548228,-0.187964 1.041469,-0.4387 1.480052,-0.751974 0.454246,-0.313273 0.822119,-0.665659 1.104065,-1.05725 0.0079,-0.01082 0.01614,-0.02185 0.02389,-0.03267 v 1.888712 H 24.33288 V 28.590795 h -2.443183 v 1.893589 C 21.645437,30.079011 21.33177,29.722243 20.949491,29.41348 20.5579,29.068879 20.096123,28.802654 19.563558,28.61469 19.030993,28.426726 18.443361,28.332822 17.80115,28.332822 Z m 0.422802,2.232026 c 0.736192,0 1.386266,0.180063 1.950158,0.540328 0.563892,0.360264 1.002923,0.853505 1.316197,1.480052 0.328937,0.626546 0.493026,1.33906 0.493026,2.137907 0,0.814511 -0.164089,1.543 -0.493026,2.18521 -0.313274,0.626547 -0.752305,1.120276 -1.316197,1.48054 -0.563892,0.360264 -1.213966,0.540328 -1.950158,0.540328 -0.720529,0 -1.362369,-0.180064 -1.926261,-0.540328 -0.548229,-0.360264 -0.986773,-0.853993 -1.31571,-1.48054 -0.313274,-0.64221 -0.470106,-1.370699 -0.470106,-2.18521 0,-0.798847 0.156832,-1.511361 0.470106,-2.137907 0.328937,-0.626547 0.767481,-1.119788 1.31571,-1.480052 0.563892,-0.360265 1.205732,-0.540328 1.926261,-0.540328 z" /></g><g
           style="fill:none;stroke:#ffffff;stroke-opacity:1"
           id="g2"
           transform="matrix(7.9214764,0,0,7.9214764,-90.959427,-45.832498)"><path
             d="m 16.161111,9.4828653 -0.553366,0.6917057 0.553366,0.691707"
             stroke="#33363f"
             stroke-width="0.276683"
             id="path2-8"
             style="stroke:#13e100;stroke-opacity:1" /></g></g></g></g></svg>
